<svg width="246" height="25" viewBox="0 0 246 25" fill="none" xmlns="http://www.w3.org/2000/svg">
<path d="M0.5 0.5H21.5V4H25V21.5H21.5V25H4V4H0.5V0.5ZM11 4V21.5H18V4H11ZM35.5 4H49.5V7.5H53V25H35.5V21.5H32V14.5H35.5V11H46V7.5H35.5V4ZM39 14.5V21.5H46V14.5H39ZM63.5 4H77.5V7.5H67V11H77.5V14.5H81V21.5H77.5V25H63.5V21.5H60V18H67V21.5H74V14.5H63.5V11H60V7.5H63.5V4ZM88 0.5H95V7.5H105.5V11H109V25H102V11H98.5V14.5H95V25H88V0.5ZM116 0.5H123V7.5H133.5V11H137V21.5H133.5V25H116V0.5ZM123 11V21.5H130V11H123ZM147.5 4H161.5V7.5H165V21.5H161.5V25H147.5V21.5H144V7.5H147.5V4ZM151 7.5V21.5H158V7.5H151ZM175.5 4H189.5V7.5H193V25H175.5V21.5H172V14.5H175.5V11H186V7.5H175.5V4ZM179 14.5V21.5H186V14.5H179ZM203.5 4H217.5V7.5H210.5V11H207V25H200V7.5H203.5V4ZM238.5 0.5H245.5V25H228V21.5H224.5V11H228V7.5H238.5V0.5ZM231.5 11V21.5H238.5V11H231.5Z" fill="white"/>
</svg>
