<svg width="760" height="294" viewBox="0 0 760 294" fill="none" xmlns="http://www.w3.org/2000/svg">
<path d="M4 0H44V8H52V24H44V40H52V56H36V40H28V32H20V56H4V0ZM20 8V24H36V8H20ZM76 8H108V16H116V32H84V48H116V56H76V48H68V16H76V8ZM84 16V24H100V16H84ZM132 8H148V32H164V8H180V32H172V48H164V56H148V48H140V32H132V8ZM204 8H236V16H244V48H236V56H204V48H196V16H204V8ZM212 16V48H228V16H212ZM260 8H276V48H292V56H268V48H260V8ZM308 8H324V48H332V40H340V8H356V56H316V48H308V8ZM372 0H388V16H412V24H388V48H412V56H380V48H372V0ZM436 0H452V8H436V0ZM428 16H452V48H460V56H428V48H436V24H428V16ZM484 8H516V16H524V48H516V56H484V48H476V16H484V8ZM492 16V48H508V16H492ZM556 8H580V16H588V56H572V16H564V24H556V56H540V16H556V8ZM612 0H628V8H612V0ZM604 16H628V48H636V56H604V48H612V24H604V16ZM652 8H692V24H684V32H676V40H668V48H692V56H652V40H660V32H668V24H676V16H652V8ZM716 8H748V16H756V32H724V48H756V56H716V48H708V16H716V8ZM724 16V24H740V16H724ZM8 115H24V139H40V115H56V139H48V147H40V171H24V147H16V139H8V115ZM80 115H96V123H80V115ZM72 131H96V163H104V171H72V163H80V139H72V131ZM128 123H160V131H168V147H136V163H168V171H128V163H120V131H128V123ZM136 131V139H152V131H136ZM184 123H200V163H216V171H192V163H184V123ZM264 115H280V171H240V163H232V139H240V131H264V115ZM248 139V163H264V139H248ZM328 115H376V123H344V139H368V147H344V171H328V115ZM400 123H432V131H440V171H400V163H392V147H400V139H424V131H400V123ZM408 147V163H424V147H408ZM464 123H496V131H480V139H472V171H456V131H464V123ZM520 123H568V131H576V171H560V131H552V171H536V131H528V171H512V131H520V123ZM600 115H616V123H600V115ZM592 131H616V163H624V171H592V163H600V139H592V131ZM656 123H680V131H688V171H672V131H664V139H656V171H640V131H656V123ZM712 123H752V171H744V179H712V171H736V163H712V155H704V131H712V123ZM720 131V155H736V131H720ZM48 238H64V278H56V286H8V278H0V246H16V278H24V246H40V278H48V238ZM88 230H104V238H88V230ZM80 246H104V278H112V286H80V278H88V254H80V246ZM128 230H144V246H168V254H144V278H168V286H136V278H128V230ZM184 230H200V246H224V254H232V286H216V254H208V262H200V286H184V230ZM280 230H296V278H320V286H280V230ZM344 238H376V246H384V262H352V278H384V286H344V278H336V246H344V238ZM352 246V254H368V246H352ZM400 238H416V262H432V238H448V262H440V278H432V286H416V278H408V262H400V238ZM472 238H504V246H512V262H480V278H512V286H472V278H464V246H472V238ZM480 246V254H496V246H480ZM536 238H568V246H552V254H544V286H528V246H536V238ZM592 238H624V246H632V286H592V278H584V262H592V254H616V246H592V238ZM600 262V278H616V262H600ZM656 238H696V286H688V294H656V286H680V278H656V270H648V246H656V238ZM664 246V270H680V246H664ZM720 238H752V246H760V262H728V278H760V286H720V278H712V246H720V238ZM728 246V254H744V246H728Z" fill="white"/>
</svg>
