<svg width="26" height="26" viewBox="0 0 26 26" fill="none" xmlns="http://www.w3.org/2000/svg">
<path fill-rule="evenodd" clip-rule="evenodd" d="M0.166504 13.0001C0.166504 5.91258 5.91234 0.166748 12.9998 0.166748C20.0873 0.166748 25.8332 5.91258 25.8332 13.0001C25.8332 20.0876 20.0873 25.8334 12.9998 25.8334C5.91234 25.8334 0.166504 20.0876 0.166504 13.0001ZM12.9998 23.5001C11.621 23.5001 10.2556 23.2285 8.98166 22.7008C7.70774 22.1731 6.55023 21.3997 5.57522 20.4247C4.6002 19.4497 3.82678 18.2922 3.2991 17.0183C2.77143 15.7443 2.49984 14.379 2.49984 13.0001C2.49984 11.6212 2.77143 10.2558 3.2991 8.9819C3.82678 7.70799 4.6002 6.55048 5.57522 5.57546C6.55023 4.60044 7.70774 3.82702 8.98166 3.29935C10.2556 2.77167 11.621 2.50008 12.9998 2.50008C15.7846 2.50008 18.4553 3.60633 20.4245 5.57546C22.3936 7.54459 23.4998 10.2153 23.4998 13.0001C23.4998 15.7849 22.3936 18.4556 20.4245 20.4247C18.4553 22.3938 15.7846 23.5001 12.9998 23.5001Z" fill="black"/>
</svg>
