<svg width="26" height="26" viewBox="0 0 26 26" fill="none" xmlns="http://www.w3.org/2000/svg">
<path fill-rule="evenodd" clip-rule="evenodd" d="M0 12.8333C0 5.74583 5.74583 0 12.8333 0C19.9208 0 25.6667 5.74583 25.6667 12.8333C25.6667 19.9208 19.9208 25.6667 12.8333 25.6667C5.74583 25.6667 0 19.9208 0 12.8333ZM12.8333 23.3333C11.4545 23.3333 10.0891 23.0617 8.81516 22.5341C7.54124 22.0064 6.38373 21.233 5.40871 20.258C4.4337 19.2829 3.66027 18.1254 3.1326 16.8515C2.60492 15.5776 2.33333 14.2122 2.33333 12.8333C2.33333 11.4545 2.60492 10.0891 3.1326 8.81516C3.66027 7.54124 4.4337 6.38373 5.40871 5.40871C6.38373 4.4337 7.54124 3.66027 8.81516 3.1326C10.0891 2.60492 11.4545 2.33333 12.8333 2.33333C15.6181 2.33333 18.2888 3.43958 20.258 5.40871C22.2271 7.37784 23.3333 10.0486 23.3333 12.8333C23.3333 15.6181 22.2271 18.2888 20.258 20.258C18.2888 22.2271 15.6181 23.3333 12.8333 23.3333Z" fill="#BEC3AF"/>
</svg>
